#!OML:ASF I:\Actors\actors\Patient Classification 1\Patient 1\Session 1\Subject1.ASF
:FULLY-SPECIFIED
:DEGREES
1760
root 0.0683839 17.4401 8.45674 6.4055 -0.194858 -8.09926
lowerback 1.04325 1.24382 5.82325
upperback -7.8359 2.09435 1.09846
thorax -8.69667 0.661066 -2.26643
lowerneck -15.3006 -5.82415 -3.42982
upperneck 26.8669 -9.40992 6.60934
head 11.8298 -3.78499 1.62716
rclavicle 1.10325e-014 1.63003e-014
rhumerus -49.5752 -18.6741 -76.2582
rradius 36.9576
rwrist 0.980088
rhand 25.7669 -25.5862
rfingers 7.12502
rthumb 49.8643 313.12
lclavicle 1.10325e-014 1.63003e-014
lhumerus -55.6155 25.5717 67.1848
lradius 31.016
lwrist 10.2628
lhand -32.6372 -17.5217
lfingers 7.12502
lthumb -5.86394 12.3772
rfemur -1.78979 23.2444 23.6247
rtibia 4.99919
rfoot -13.1995 -25.2705
rtoes 1.21494
lfemur 6.88556 -38.1233 -12.9024
ltibia -3.80751
lfoot -18.4634 49.2611
ltoes 8.53752
1761
root 0.068727 17.4412 8.43404 6.57321 -0.196683 -8.11069
lowerback 1.10668 1.27579 5.81798
upperback -7.9007 2.14538 1.09957
thorax -8.80198 0.682356 -2.26882
lowerneck -15.7623 -5.98169 -3.43034
upperneck 27.2555 -9.60903 6.41338
head 12.0766 -3.87558 1.51112
rclavicle 3.77691e-015 -1.43125e-014
rhumerus -48.9064 -19.0743 -76.0836
rradius 34.8936
rwrist 5.73931
rhand 22.6498 -26.958
rfingers 7.12502
rthumb 46.9951 310.374
lclavicle 3.77691e-015 -1.43125e-014
lhumerus -55.3028 26.7326 66.0044
lradius 28.8447
lwrist 4.90709
lhand -32.0597 -16.5528
lfingers 7.12502
lthumb -5.30636 13.3607
rfemur -2.04934 23.3644 23.5211
rtibia 4.94877
rfoot -13.2019 -25.3393
rtoes 1.44207
lfemur 6.4564 -38.0612 -12.6266
ltibia -3.71125
lfoot -18.4422 49.1993
ltoes 8.63054
1762
root 0.0676303 17.4455 8.41195 6.67847 -0.161408 -8.06245
lowerback 1.21863 1.27131 5.69668
upperback -7.95057 2.1439 1.10672
thorax -8.92633 0.686223 -2.19736
lowerneck -15.5085 -5.8339 -3.48463
upperneck 26.8929 -9.4381 6.71173
head 11.8933 -3.78323 1.66421
rclavicle -7.35503e-015 -3.1408e-014
rhumerus -48.1779 -19.333 -75.9465
rradius 32.6486
rwrist 10.7449
rhand 20.0389 -27.7968
rfingers 7.12502
rthumb 44.5713 308.537
lclavicle -7.35503e-015 -3.1408e-014
lhumerus -55.0585 27.7628 64.8688
lradius 26.7551
lwrist -1.23073
lhand -31.7551 -15.3414
lfingers 7.12502
lthumb -5.0123 14.5793
rfemur -2.18627 23.5453 23.3994
rtibia 4.82007
rfoot -13.1475 -25.5269
rtoes 1.6533
lfemur 6.05262 -37.9267 -12.4254
ltibia -3.58093
lfoot -18.3443 49.0253
ltoes 8.56479
1763
root 0.066406 17.4511 8.38849 6.76626 -0.106249 -8.01814
lowerback 1.40827 1.24633 5.61451
upperback -8.01399 2.12292 1.10846
thorax -9.11274 0.675452 -2.15398
lowerneck -15.6153 -5.8119 -3.40319
upperneck 26.9626 -9.3946 6.58314
head 11.9273 -3.76665 1.60724
rclavicle -1.23246e-014 2.38542e-014
rhumerus -47.3875 -19.7477 -75.6802
rradius 30.1827
rwrist 16.105
rhand 17.6492 -28.6117
rfingers 7.12502
rthumb 42.3392 306.913
lclavicle -1.23246e-014 2.38542e-014
lhumerus -54.842 28.3834 64.0123
lradius 24.9218
lwrist -7.32637
lhand -31.0881 -14.2326
lfingers 7.12502
lthumb -4.36817 15.7023
rfemur -2.28461 23.7086 23.2938
rtibia 4.63712
rfoot -13.0443 -25.7285
rtoes 1.71287
lfemur 5.66124 -37.7897 -12.2233
ltibia -3.44845
lfoot -18.2694 48.814
ltoes 8.57586
1764
root 0.0651252 17.4562 8.3652 6.85111 -0.0347965 -8.06356
lowerback 1.63106 1.22081 5.65486
upperback -8.07979 2.11269 1.12578
thorax -9.31952 0.660926 -2.16389
lowerneck -15.7285 -5.80621 -3.30922
upperneck 26.999 -9.37313 6.44754
head 11.9499 -3.76038 1.54171
rclavicle 2.46493e-014 -5.56597e-015
rhumerus -46.5804 -20.5143 -75.1309
rradius 27.6143
rwrist 21.6124
rhand 15.423 -30.0707
rfingers 7.12502
rthumb 40.2497 304.779
lclavicle 2.46493e-014 -5.56597e-015
lhumerus -54.567 28.6591 63.4325
lradius 23.2907
lwrist -13.0504
lhand -29.8155 -13.3462
lfingers 7.12502
lthumb -3.13927 16.6104
rfemur -2.38339 23.7532 23.2859
rtibia 4.45437
rfoot -12.9308 -25.8426
rtoes 1.72178
lfemur 5.29945 -37.6296 -11.9108
ltibia -3.38961
lfoot -18.0242 48.6181
ltoes 8.48468
1765
root 0.0630101 17.4604 8.34288 6.9847 0.0473721 -8.11343
lowerback 1.7777 1.17984 5.65967
upperback -8.15935 2.07577 1.16071
thorax -9.50024 0.637427 -2.13068
lowerneck -15.7589 -5.80005 -3.35557
upperneck 26.9448 -9.34092 6.43374
head 11.9344 -3.75306 1.54834
rclavicle 1.95803e-014 3.57812e-015
rhumerus -45.899 -21.7045 -74.1522
rradius 24.916
rwrist 27.9041
rhand 13.537 -31.1149
rfingers 7.12502
rthumb 38.4728 303.216
lclavicle 1.95803e-014 3.57812e-015
lhumerus -54.4013 28.9499 62.7118
lradius 21.736
lwrist -18.5905
lhand -28 -13.0415
lfingers 7.12502
lthumb -1.38587 16.9338
rfemur -2.56515 23.737 23.2534
rtibia 4.33746
rfoot -12.8911 -25.9071
rtoes 1.91563
lfemur 4.87291 -37.4514 -11.5452
ltibia -3.35594
lfoot -17.7062 48.4334
ltoes 8.26141
1766
root 0.0602252 17.4643 8.32186 7.12131 0.115824 -8.11125
lowerback 1.90405 1.13308 5.5827
upperback -8.24626 2.02435 1.1976
thorax -9.67997 0.613301 -2.0477
lowerneck -15.63 -5.74285 -3.37185
upperneck 26.8447 -9.28256 6.55411
head 11.8737 -3.71953 1.60812
rclavicle -1.10325e-014 7.55382e-015
rhumerus -45.6137 -23.6732 -72.3854
rradius 22.1374
rwrist 35.9609
rhand 12.0455 -30.798
rfingers 7.12502
rthumb 37.0637 303.154
lclavicle -1.10325e-014 7.55382e-015
lhumerus -54.4815 29.5468 61.4918
lradius 20.1086
lwrist -24.1672
lhand -25.8665 -14.0101
lfingers 7.12502
lthumb 0.674713 15.9686
rfemur -2.76272 23.7823 23.1565
rtibia 4.23654
rfoot -12.8452 -26.0186
rtoes 2.18023
lfemur 4.57958 -37.6743 -11.3697
ltibia -3.33367
lfoot -17.971 48.5439
ltoes 8.73418
1767
root 0.0570384 17.4665 8.30047 7.2513 0.15027 -8.15594
lowerback 2.04457 1.11496 5.55622
upperback -8.31343 2.01567 1.24122
thorax -9.84247 0.607463 -1.98969
lowerneck -16.0196 -5.86448 -3.24137
upperneck 27.2374 -9.40844 6.16271
head 12.0837 -3.79129 1.41134
rclavicle 6.01324e-015 -2.74323e-014
rhumerus -45.7896 -26.3824 -69.9049
rradius 19.7661
rwrist 44.5802
rhand 11.1658 -30.5017
rfingers 7.12502
rthumb 36.2312 303.239
lclavicle 6.01324e-015 -2.74323e-014
lhumerus -53.8603 29.1503 61.9071
lradius 19.1759
lwrist -27.5487
lhand -23.9645 -11.1765
lfingers 7.12502
lthumb 2.51164 18.7885
rfemur -2.96456 23.8552 23.1108
rtibia 4.147
rfoot -12.7611 -26.107
rtoes 2.31443
lfemur 4.4126 -38.2654 -11.2584
ltibia -3.2998
lfoot -18.7932 48.9306
ltoes 9.86221
1768
root 0.054938 17.4657 8.27751 7.43681 0.183276 -8.26022
lowerback 2.14435 1.11325 5.61464
upperback -8.38217 2.03296 1.29075
thorax -9.97951 0.608679 -1.97403
lowerneck -15.5943 -5.72732 -3.40053
upperneck 26.6365 -9.24146 6.58503
head 11.786 -3.7064 1.63089
rclavicle 2.33075e-014 2.94201e-014
rhumerus -46.3289 -29.1925 -67.2222
rradius 18.0133
rwrist 52.3198
rhand 10.7611 -30.9244
rfingers 7.12502
rthumb 35.8479 302.722
lclavicle 2.33075e-014 2.94201e-014
lhumerus -53.4934 29.3327 61.5608
lradius 18.0888
lwrist -31.7157
lhand -22.1527 -9.92147
lfingers 7.12502
lthumb 4.26131 20.0156
rfemur -3.25541 23.8827 23.1031
rtibia 4.125
rfoot -12.7747 -26.1128
rtoes 2.5333
lfemur 4.11131 -38.7454 -10.9912
ltibia -3.23124
lfoot -19.4186 49.2725
ltoes 10.5202
1769
root 0.0535527 17.4655 8.25688 7.60524 0.281646 -8.33349
lowerback 2.22696 1.10548 5.66481
upperback -8.44317 2.0389 1.32545
thorax -10.0982 0.604953 -1.96794
lowerneck -15.6687 -5.75703 -3.44784
upperneck 26.5935 -9.27552 6.61839
head 11.791 -3.72114 1.64354
rclavicle -5.91384e-015 -7.55382e-015
rhumerus -47.1487 -31.7134 -64.6234
rradius 16.7821
rwrist 58.7855
rhand 10.5567 -31.637
rfingers 7.12502
rthumb 35.6542 301.962
lclavicle -5.91384e-015 -7.55382e-015
lhumerus -53.2565 29.7364 60.9183
lradius 17.0155
lwrist -35.9965
lhand -20.3849 -9.28238
lfingers 7.12502
lthumb 5.96824 20.6136
rfemur -3.50229 23.8725 23.08
rtibia 4.08497
rfoot -12.8078 -26.1609
rtoes 2.74774
lfemur 3.74591 -38.8871 -10.6603
ltibia -3.23038
lfoot -19.2466 49.3962
ltoes 10.1608
1770
root 0.0518092 17.4679 8.24071 7.66276 0.353024 -8.32767
lowerback 2.35436 1.11838 5.60447
upperback -8.45451 2.06396 1.34287
thorax -10.1875 0.620209 -1.92174
lowerneck -15.6957 -5.8066 -3.5265
upperneck 26.5437 -9.34012 6.68759
head 11.7895 -3.74965 1.67107
rclavicle -2.41523e-014 5.56597e-015
rhumerus -48.0392 -33.8196 -62.3254
rradius 15.9376
rwrist 63.7524
rhand 10.3312 -32.4688
rfingers 7.12502
rthumb 35.4404 301.079
lclavicle -2.41523e-014 5.56597e-015
lhumerus -53.0025 30.2059 60.2709
lradius 16.0176
lwrist -39.9916
lhand -18.5148 -8.82069
lfingers 7.12502
lthumb 7.77345 21.0164
rfemur -3.58024 23.8587 23.0268
rtibia 3.9863
rfoot -12.7213 -26.2327
rtoes 2.63722
lfemur 3.57194 -38.8679 -10.5083
ltibia -3.31385
lfoot -18.816 49.3914
ltoes 9.76807
1771
root 0.0487366 17.4695 8.22414 7.73563 0.330975 -8.3177
lowerback 2.48961 1.16376 5.48862
upperback -8.46715 2.12894 1.36015
thorax -10.2814 0.659341 -1.84944
lowerneck -15.7264 -5.86958 -3.56997
upperneck 26.4776 -9.4267 6.73741
head 11.781 -3.78728 1.68188
rclavicle -6.90777e-015 -3.97569e-015
rhumerus -48.792 -35.3321 -60.6152
rradius 15.4052
rwrist 67.1295
rhand 10.0737 -33.3602
rfingers 7.12502
rthumb 35.1962 300.13
lclavicle -6.90777e-015 -3.97569e-015
lhumerus -52.7604 30.7417 59.6149
lradius 15.1687
lwrist -43.5795
lhand -16.824 -8.59666
lfingers 7.12502
lthumb 9.40512 21.1735
rfemur -3.70633 23.9229 22.9573
rtibia 3.93294
rfoot -12.6772 -26.2711
rtoes 2.59417
lfemur 3.45302 -39.0236 -10.4237
ltibia -3.36681
lfoot -18.8695 49.5336
ltoes 10.1318
1772
root 0.0439906 17.4699 8.20557 7.89643 0.345021 -8.35671
lowerback 2.59444 1.19554 5.41824
upperback -8.51676 2.17875 1.38018
thorax -10.3995 0.686422 -1.79746
lowerneck -15.7812 -5.93037 -3.54158
upperneck 26.4117 -9.50881 6.71629
head 11.7689 -3.824 1.65457
rclavicle 2.13694e-015 6.36111e-015
rhumerus -49.2289 -36.0731 -59.744
rradius 15.1801
rwrist 68.7456
rhand 9.89411 -33.9292
rfingers 7.12502
rthumb 35.0259 299.521
lclavicle 2.13694e-015 6.36111e-015
lhumerus -52.4034 30.9988 59.311
lradius 14.5492
lwrist -46.2611
lhand -15.5786 -8.30122
lfingers 7.12502
lthumb 10.6067 21.4111
rfemur -3.98984 24.0187 22.9045
rtibia 3.97368
rfoot -12.749 -26.3406
rtoes 2.92188
lfemur 3.17067 -39.2761 -10.1789
ltibia -3.37122
lfoot -19.005 49.7511
ltoes 10.4444
1773
root 0.0408682 17.4718 8.18988 8.00918 0.424679 -8.39611
lowerback 2.69763 1.18544 5.39633
upperback -8.54094 2.17455 1.40245
thorax -10.4911 0.684431 -1.76391
lowerneck -16.0226 -6.01107 -3.39479
upperneck 26.5303 -9.59819 6.4622
head 11.8457 -3.87136 1.51575
rclavicle -1.36167e-014 -2.94201e-014
rhumerus -49.309 -36.2068 -59.5673
rradius 15.1351
rwrist 68.8828
rhand 9.5832 -33.9377
rfingers 7.12502
rthumb 34.7309 299.444
lclavicle -1.36167e-014 -2.94201e-014
lhumerus -51.9087 30.9014 59.4767
lradius 14.1609
lwrist -47.9957
lhand -14.8266 -8.14441
lfingers 7.12502
lthumb 11.332 21.5294
rfemur -4.19529 24.0194 22.8841
rtibia 3.99702
rfoot -12.7131 -26.4155
rtoes 2.91016
lfemur 2.89011 -39.3547 -9.92296
ltibia -3.37114
lfoot -18.8045 49.798
ltoes 10.1254
